<svg id="레이어_1" data-name="레이어 1" xmlns="http://www.w3.org/2000/svg" width="0.86in" height="1.66in" viewBox="0 0 61.91 119.32">
  <defs>
    <style>
      .cls-1 {
        fill: #040000;
      }

      .cls-2, .cls-4 {
        fill: #fff;
      }

      .cls-2 {
        stroke: #231815;
        stroke-miterlimit: 10;
      }

      .cls-3 {
        fill: #231815;
      }
    </style>
  </defs>
  <title>beer9</title>
  <rect class="cls-1" y="21.41" width="57.12" height="91.47" rx="12"/>
  <rect class="cls-1" x="8.16" y="14.11" width="39.94" height="4.29" rx="1.98"/>
  <rect class="cls-1" x="8.16" y="115.46" width="39.94" height="3.87" rx="1.78"/>
  <path class="cls-2" d="M79.55,51.46c-1.6.51.69,5.69-1.36,10.74-1,2.37-2.74,4.35-2.38,7.7,0,.22,0,.36.1.65.75,4.83,2.27,7.22,2.74,7.9a1,1,0,0,1,.56,0c1.61.48,1.82,4.86,3.42,6.41.57.56,1.37.37,3,0s1.81-1,2.57-.68c1.35.56,1.35,2.7,2.75,4.36C93,91,94.2,87.68,96,90.45a11.68,11.68,0,0,1,1.63,5.45c.13,2.18-.37,2.87-.34,6a29.94,29.94,0,0,0,.56,5.45,18.09,18.09,0,0,0,1.68,5.45c1.87,3,4.38.25,4.6,0a16.86,16.86,0,0,0,2.24-6,22.29,22.29,0,0,0,.56-6.55c-.35-3.6-1.81-4.65-1.63-7,.1-1.2.52-1.21.95-2.59.93-2.92.68-8.06-.11-11.45-.83-3.58-1.75-3-2.69-7.22-.53-2.4-.27-2.76-.84-5.86-.51-2.82-1.2-6.58-2.57-8.21-1.59-1.91-2.5,1-4.45-.73C94.1,56,94.41,54.16,92.88,52c-2.24-3.15-5-2.28-7.95-1.36a15.29,15.29,0,0,1-2,.54,10.66,10.66,0,0,1-1.56.16A16.16,16.16,0,0,0,79.55,51.46Z" transform="translate(-45.54 -37.84)"/>
  <ellipse class="cls-3" cx="32.19" cy="7.05" rx="4.06" ry="7.05"/>
  <circle class="cls-4" cx="32.19" cy="5.39" r="3.13"/>
</svg>
