<svg id="레이어_1" data-name="레이어 1" xmlns="http://www.w3.org/2000/svg" width="1.44in" height="1.89in" viewBox="0 0 103.66 136.39">
  <defs>
    <style>
      .cls-1 {
        fill: #231815;
      }

      .cls-2 {
        fill: #fff;
      }
    </style>
  </defs>
  <title>beer7</title>
  <path class="cls-1" d="M66.56,55.64c2-.2,4.2-.33,6.58-.33s4.65.13,6.67.33v1.85l2.46.38a2.4,2.4,0,0,1,.62,1.49,2.44,2.44,0,0,1-.41,1.44l-2.81.5q1.8,24.56,3.62,49.11s7.82,2.82,8.37,12.71l-.22,65.74a3.65,3.65,0,0,1-2.06,2.83l-31.74-.43a3.21,3.21,0,0,1-3.15-2.93L54.06,125s-.76-11,8.37-14.24q1.93-24.81,3.89-49.64L64,60.64a2,2,0,0,1-.67-1.35A2.06,2.06,0,0,1,64,57.66l2.55-.06Z" transform="translate(-54.04 -55.31)"/>
  <rect class="cls-2" x="5.76" y="74.66" width="26.09" height="47.4"/>
  <path class="cls-1" d="M132.6,73.29c2-.18,4.2-.29,6.58-.29s4.66.11,6.68.29v1.6l2.45.34a1.92,1.92,0,0,1,.62,1.29,1.86,1.86,0,0,1-.41,1.26l-2.81.43q1.81,21.38,3.62,42.74A12.63,12.63,0,0,1,157.7,132l-.21,57.21a3.06,3.06,0,0,1-.62,1.4,3.65,3.65,0,0,1-1.45,1.06l-31.73-.37a3.68,3.68,0,0,1-2.15-.76,2.71,2.71,0,0,1-1-1.8l-.44-55.14s-.76-9.55,8.37-12.39q2-21.6,3.89-43.2L130,77.64a1.54,1.54,0,0,1,0-2.59L132.6,75Z" transform="translate(-54.04 -55.31)"/>
  <rect class="cls-2" x="71.81" y="82.66" width="26.09" height="41.25"/>
  <path class="cls-2" d="M146.36,115.09H131.43q1-8.76,2.11-17.53a9.7,9.7,0,0,1,10.4,0Q145.14,106.32,146.36,115.09Z" transform="translate(-54.04 -55.31)"/>
</svg>
