<svg id="레이어_1" data-name="레이어 1" xmlns="http://www.w3.org/2000/svg" width="0.68in" height="1.41in" viewBox="0 0 49.27 101.26">
  <defs>
    <style>
      .cls-1 {
        fill: none;
        stroke: #040000;
        stroke-miterlimit: 10;
        stroke-width: 2px;
      }

      .cls-2 {
        fill: #040000;
      }
    </style>
  </defs>
  <title>beer6</title>
  <path class="cls-1" d="M48.88,47.63,50.43,95.1l8.21,19.08v19.3l-4,8H92.14L88.59,135V114l7.54-19.41V46.74s-8.65-10.2-19.74,0c0,0-8.65-5.55-12.65-.22C63.74,46.52,58.2,39,48.88,47.63Z" transform="translate(-47.87 -41.2)"/>
  <line class="cls-1" x1="1.68" y1="26.84" x2="48.27" y2="26.61"/>
  <circle class="cls-2" cx="8.39" cy="34.65" r="1.83"/>
  <circle class="cls-2" cx="19.81" cy="42.78" r="1.83"/>
  <circle class="cls-2" cx="35.14" cy="38.31" r="1.83"/>
  <circle class="cls-2" cx="36.97" cy="49.49" r="1.83"/>
  <circle class="cls-2" cx="31.48" cy="58.57" r="1.83"/>
  <circle class="cls-2" cx="13.03" cy="52.46" r="1.83"/>
  <circle class="cls-2" cx="19.81" cy="67.99" r="1.83"/>
  <circle class="cls-2" cx="31.48" cy="78.01" r="1.83"/>
  <circle class="cls-2" cx="19.81" cy="87" r="1.83"/>
</svg>
