<svg id="레이어_1" data-name="레이어 1" xmlns="http://www.w3.org/2000/svg" width="1.69in" height="2.34in" viewBox="0 0 121.88 168.6">
  <defs>
    <style>
      .cls-1 {
        fill: #231815;
      }

      .cls-2 {
        fill: none;
        stroke: #231815;
        stroke-miterlimit: 10;
      }

      .cls-3 {
        fill: #fff;
      }
    </style>
  </defs>
  <title>beer4</title>
  <circle class="cls-1" cx="50.53" cy="33.72" r="13.58"/>
  <circle class="cls-1" cx="68.26" cy="4.25" r="4.25"/>
  <circle class="cls-1" cx="59.36" cy="10.18" r="3.62"/>
  <circle class="cls-1" cx="66.08" cy="18.93" r="3.09"/>
  <path class="cls-1" d="M41,101a4.89,4.89,0,0,0-5.24-1.76,5,5,0,0,0-3,3.38,5.45,5.45,0,0,0,.21,3.34c1.37,3.64,6.21,5,7.36,5.26,3.41.92,8.19,1.09,25.59-6.35,3.92-1.67,7.13-3.16,9.34-4.2a188.32,188.32,0,0,1,2.56,23.53c.32,7.1.58,12.73-.21,20.13a95.34,95.34,0,0,1-11.1,36,87,87,0,0,1-8,12,8.31,8.31,0,0,0-1,6.85,7.75,7.75,0,0,0,2.76,3.66,9.3,9.3,0,0,0,5.57,1.85c3.65-.23,6.15-3.74,7.77-6.14,9-13.31,11.35-20.34,11.35-20.34A192.94,192.94,0,0,0,93,141.69l8.11,1.18c.65,11.71.55,20.82.34,26.94a92.57,92.57,0,0,1-1.34,13.71,85.64,85.64,0,0,1-2.74,11,8.5,8.5,0,0,0,1.22,8.57,7.74,7.74,0,0,0,4.12,2.44,8.57,8.57,0,0,0,5.17-.63c4.26-2,5-6.92,5-7.31a138,138,0,0,0,3.32-18.49c1.22-11.2.78-19.85.29-28.46-.58-10.37-1.68-18.12-2.48-23.62-1.18-8.15-3-18.8-6.09-31.19l-1-2.56a83.45,83.45,0,0,0,19.56-3.73,82.36,82.36,0,0,0,9.78-3.8c1.08-.43,5.48-2.3,7.1-6.8a10.35,10.35,0,0,0,.59-3.15,5,5,0,0,0-6.68-4.08,5.84,5.84,0,0,0-3.53,3.86A39.85,39.85,0,0,1,129,78.71c-10,5.69-19.43,5.36-26.84,5.86A147.3,147.3,0,0,0,74.28,91a123.52,123.52,0,0,0-16.57,7c-5.19,2.53-9.46,4-11.8,4.33a5.79,5.79,0,0,1-4.1-.58A4.51,4.51,0,0,1,41,101Z" transform="translate(-32.49 -37.07)"/>
  <path class="cls-2" d="M46.58,102.05" transform="translate(-32.49 -37.07)"/>
  <path class="cls-1" d="M129.49,67.65,132.15,66l8.18,12.57L145,81l8.87,14.74a2.27,2.27,0,0,1,.5,1.07c.41,2.7-5.15,6.73-7.89,5.37a2.7,2.7,0,0,1-1.06-1q-3.17-5.36-6.34-10.7-1.16-2-2.32-3.9h0s-.53-3.36-1.33-8.39Q132.44,72.91,129.49,67.65Z" transform="translate(-32.49 -37.07)"/>
  <rect class="cls-3" x="141.22" y="86.25" width="4.78" height="9.87" transform="matrix(0.87, -0.5, 0.5, 0.87, -58.85, 46.95)"/>
</svg>
