<svg id="레이어_1" data-name="레이어 1" xmlns="http://www.w3.org/2000/svg" width="1.36in" height="1.55in" viewBox="0 0 97.61 111.36">
  <defs>
    <style>
      .cls-1 {
        fill: #231815;
      }

      .cls-2 {
        fill: #fff;
      }

      .cls-3 {
        fill: none;
        stroke: #040000;
        stroke-miterlimit: 10;
        stroke-width: 2px;
      }
    </style>
  </defs>
  <title>beer5</title>
  <path class="cls-1" d="M50.23,80.78V95.12l-5.54.06v13.27H55.26v9.31L44.69,140.9l7.3,4.28L74.88,113l6.29-1.51v5.79h4.28L91.74,113l17.45.17v6.35l18-.23v-8.56h15.1V91.6l-14.85.25c-.12-2.78-.25-5.55-.38-8.33l-18.23,0V91.6l-41,.5c0-3.73,0-7.45.07-11.18Z" transform="translate(-44.69 -33.82)"/>
  <circle class="cls-2" cx="52.03" cy="67.96" r="6.16"/>
  <rect class="cls-2" x="65.66" y="50.73" width="15.85" height="33.46"/>
  <path class="cls-3" d="M54,82.94c-5.47-19.27-7.62-34.22-6.16-39.61a12.87,12.87,0,0,1,3-5.42,11.36,11.36,0,0,1,6.9-3,11.69,11.69,0,0,1,8.17,2.3c.79.61,2.82,2.39,4.09,6.61,1.8,6,.32,11.42-1,16.18-1.39,5.14-3.31,12.41-6,22.95Z" transform="translate(-44.69 -33.82)"/>
</svg>
