<svg id="레이어_1" data-name="레이어 1" xmlns="http://www.w3.org/2000/svg" width="1.62in" height="1.63in" viewBox="0 0 116.65 117.34">
  <defs>
    <style>
      .cls-1, .cls-2 {
        fill: #fff;
        stroke: #040000;
        stroke-miterlimit: 10;
      }

      .cls-1 {
        stroke-width: 2px;
      }

      .cls-2 {
        stroke-width: 4px;
      }

      .cls-3 {
        fill: #040000;
      }
    </style>
  </defs>
  <title>beer8</title>
  <path class="cls-1" d="M143.71,87.93c1.51,5.51,5.36,6.39,5.1,9.22-.31,3.48-6.2,2.93-8.82,7.65-3.14,5.63,2.54,11.28-.76,15.6-2.36,3.1-5.84.9-9.44,4.4-4,3.93-1.53,8.49-5.3,11.38-3.25,2.5-5.76-.41-11,1.77-6.19,2.57-6.32,8.18-10.6,8.23-2.77,0-3.25-2.32-8.82-3.72-2.22-.56-3.77-1-5.69-.59-4.7.89-5.3,5.11-8.43,5.3-3.4.19-3.72-4.71-9-7.65-6.53-3.63-11.88.58-15.3-3.14-2.62-2.86.06-5.86-2.74-9.81-3.18-4.49-8-2.54-10.59-6.67-2.49-3.92,1.26-6.6-.79-12.36-2.16-6.06-7.77-7.11-7.32-11.15.27-2.41,2.28-2.12,3.79-5.71,2.19-5.21.15-11-.2-12-1.29-3.53-2.82-4.23-2.35-5.88.79-2.76,5.3-1.66,8.43-4.71,4.82-4.69,0-13,4.32-16.28,3-2.28,6.09,1.18,10.2-1,5.58-3,3.15-11.09,8-13.54,5.07-2.53,10.52,4.78,16.34,2,4.28-2,4.07-7.35,7.2-7.5s4,5.41,9.81,7.06a14.35,14.35,0,0,0,6.27.2c3.86-.74,4.5-2.58,6.48-2.35,3.53.41,2.92,6.46,7.65,10.19,5.37,4.25,11.29.46,14.12,4.32,2.49,3.41-1.68,7,.59,12,2.66,5.9,10.39,5.35,11,10,.33,2.59-2,3.29-2.55,8.43A16.69,16.69,0,0,0,143.71,87.93Z" transform="translate(-33.17 -30.83)"/>
  <circle class="cls-2" cx="58.33" cy="59.67" r="43.57"/>
  <rect class="cls-3" x="16.09" y="45.14" width="84.14" height="25.5"/>
</svg>
