<svg id="레이어_1" data-name="레이어 1" xmlns="http://www.w3.org/2000/svg" width="1.8in" height="1.44in" viewBox="0 0 129.93 103.48">
  <defs>
    <style>
      .cls-1 {
        fill: none;
        stroke: #231815;
        stroke-miterlimit: 10;
        stroke-width: 2px;
      }
    </style>
  </defs>
  <title>beer3</title>
  <path class="cls-1" d="M61.58,45.24a76.89,76.89,0,0,1,95.71-1.53" transform="translate(-45.43 -26.76)"/>
  <path class="cls-1" d="M57.1,55.24a112.19,112.19,0,0,1,105.79.24" transform="translate(-45.43 -26.76)"/>
  <path class="cls-1" d="M54.19,69.8a169.91,169.91,0,0,1,111.61.1" transform="translate(-45.43 -26.76)"/>
  <path class="cls-1" d="M64.19,115.76a88,88,0,0,0,94.16-.35" transform="translate(-45.43 -26.76)"/>
  <path class="cls-1" d="M56.64,99.84a119.72,119.72,0,0,0,55.09,13.09,119.58,119.58,0,0,0,52.48-12.57" transform="translate(-45.43 -26.76)"/>
  <path class="cls-1" d="M53.86,87a186,186,0,0,0,53.47,8.37,185.76,185.76,0,0,0,58.7-9" transform="translate(-45.43 -26.76)"/>
  <path class="cls-1" d="M55.17,41.73a76.58,76.58,0,0,0,1.29,73.45" transform="translate(-45.43 -26.76)"/>
  <path class="cls-1" d="M61.71,44.57a71.06,71.06,0,0,0,2.64,71.5" transform="translate(-45.43 -26.76)"/>
  <path class="cls-1" d="M76.26,35.8a175.84,175.84,0,0,0,1.07,86.52" transform="translate(-45.43 -26.76)"/>
  <path class="cls-1" d="M85.07,31.85a167.17,167.17,0,0,0,.58,94" transform="translate(-45.43 -26.76)"/>
  <path class="cls-1" d="M164.17,41.79a75.34,75.34,0,0,1,1.63,72.7" transform="translate(-45.43 -26.76)"/>
  <path class="cls-1" d="M156.72,42.71a75.27,75.27,0,0,1,1.63,72.7" transform="translate(-45.43 -26.76)"/>
  <path class="cls-1" d="M142,34.62a171.8,171.8,0,0,1,6.87,39.28A172,172,0,0,1,144.76,122" transform="translate(-45.43 -26.76)"/>
  <path class="cls-1" d="M132.94,31.28a164.49,164.49,0,0,1,8.58,44.58,165,165,0,0,1-5,49.77" transform="translate(-45.43 -26.76)"/>
  <path class="cls-1" d="M156.72,43.38l8.45-1.16" transform="translate(-45.43 -26.76)"/>
  <path class="cls-1" d="M158.35,115.41l8.08-1.53" transform="translate(-45.43 -26.76)"/>
  <path class="cls-1" d="M54.2,42.1l7.56,2.47" transform="translate(-45.43 -26.76)"/>
  <path class="cls-1" d="M55.7,114.58l8.49,1.18" transform="translate(-45.43 -26.76)"/>
</svg>
