<svg id="레이어_1" data-name="레이어 1" xmlns="http://www.w3.org/2000/svg" width="1.67in" height="2.57in" viewBox="0 0 120.35 185.35">
  <defs>
    <style>
      .cls-1 {
        fill: #231815;
      }
    </style>
  </defs>
  <title>beer2</title>
  <path class="cls-1" d="M22.25,41.45A75.91,75.91,0,0,0,32,65.74,78.15,78.15,0,0,0,64.2,94.55L84.39,144.9a39.38,39.38,0,0,1,8.2,14.26c2.65,8.31,1.72,15.26,1,20.64a60.33,60.33,0,0,1-7.8,22,10,10,0,0,0,.09,5.69c.11.34,1.57,4.61,5.69,6,3.83,1.34,8.47-.3,11.23-4.15,0,0,14.94-28.06,9.7-49a43.61,43.61,0,0,1,6.91,10.36c2.12,4.45,5,10.44,3.35,17.3a18.56,18.56,0,0,1-2.1,5.17,10.41,10.41,0,0,0,.92,5.32,10.14,10.14,0,0,0,5.63,5.27c4.31,1.45,8.28-1.1,9.14-1.69,5.54-3.8,5.94-11.62,6.24-17.34A45.84,45.84,0,0,0,139,164.83s-6.36-15.21-25.5-31.73l-9.7-46.41a37.66,37.66,0,0,0,11.76-8.88c9.71-11,9.68-24.38,9.55-28.13l-12.48,3.86c0,1-.59,10.43-8.63,15.75a19.59,19.59,0,0,1-13,3c-2.81,1.11-5.9,2.21-9.25,3.21S75,77.3,72,77.92a64.36,64.36,0,0,1-20.2-11.35,65.06,65.06,0,0,1-19-26.82A5.92,5.92,0,0,0,25.81,37C22.92,38.06,22.27,41.32,22.25,41.45Z" transform="translate(-22.25 -28.66)"/>
  <path class="cls-1" d="M112.09,33.75l9-2.36a4.86,4.86,0,0,0-6-2.42A5.25,5.25,0,0,0,112.09,33.75Z" transform="translate(-22.25 -28.66)"/>
  <circle class="cls-1" cx="54.93" cy="26.16" r="17.44"/>
  <path class="cls-1" d="M94.62,46.36c1.23-.45,3.15-1.15,5.53-2,3.31-1.26,4.26-1.66,4.93-2.74s.38-1.84,1.25-2.82a5,5,0,0,1,3.16-1.48c2.75-.44,9.8-2.33,19.68-5.09a3.55,3.55,0,0,1,3.41,2.29c.51,2.39,1,4.78,1.52,7.18a3.12,3.12,0,0,1-.16,1.41,3,3,0,0,1-1.09,1.4l-20,6.34a7.15,7.15,0,0,1-2.66-.23c-2-.57-2.39-1.67-4-2.12-1.23-.34-1.87.06-4.41.65a42.73,42.73,0,0,1-5.83.93Z" transform="translate(-22.25 -28.66)"/>
</svg>
