<svg id="레이어_1" data-name="레이어 1" xmlns="http://www.w3.org/2000/svg" width="2.08in" height="1.37in" viewBox="0 0 149.58 98.46">
  <defs>
    <style>
      .cls-1, .cls-2 {
        fill: none;
      }

      .cls-1, .cls-2, .cls-3 {
        stroke: #231815;
        stroke-miterlimit: 10;
      }

      .cls-1, .cls-3 {
        stroke-width: 2px;
      }

      .cls-2 {
        stroke-width: 2.5px;
      }

      .cls-3 {
        fill: #fff;
      }
    </style>
  </defs>
  <title>beer</title>
  <path class="cls-1" d="M149.1,55.8l13.62,51.81a12.11,12.11,0,0,1,.26,5.85,12.75,12.75,0,0,1-5.21,7.67l-34,8.57a15.28,15.28,0,0,1-4.66-2.2,15,15,0,0,1-3.22-3.09q-8.16-29-16.3-58L142.05,53.2Z" transform="translate(-24.71 -32.27)"/>
  <line class="cls-2" x1="120.14" y1="31.81" x2="132.36" y2="77.64"/>
  <line class="cls-2" x1="110.44" y1="34.36" x2="122.67" y2="80.19"/>
  <line class="cls-2" x1="93.69" y1="38.78" x2="105.91" y2="84.61"/>
  <line class="cls-2" x1="83" y1="41.59" x2="95.23" y2="87.42"/>
  <path class="cls-3" d="M144.85,34.68c3.5.77,6.29,3.87,7.56,7a12.5,12.5,0,0,1,0,9.25,13.49,13.49,0,0,1-5.7,6.72,4.43,4.43,0,0,0-1.17,0c-3.34.4-3.78,4.12-7.1,5.44-1.2.47-2.85.31-6.17,0s-3.76-.85-5.36-.58c-2.78.47-2.79,2.29-5.7,3.7-3.52,1.7-8.11,2.22-10.48,1.62-3.55-.9-3.3-2.7-7.51-5.09-6.69-3.81-13.45-2.77-13.57-4.4-.06-.92,2-1.81,4.21-4.17a9.2,9.2,0,0,0,1.38-2c1.11-2,.56-2.34,1.75-5,1.07-2.39,2.51-5.58,5.34-7,3.3-1.62,5.21.84,9.25-.62,3-1.09,2.37-2.62,5.55-4.44,4.66-2.68,10.46-1.94,16.54-1.16,1.05.13,2.18.32,4.07.46C142.35,34.8,143,34.29,144.85,34.68Z" transform="translate(-24.71 -32.27)"/>
  <path class="cls-1" d="M151.83,66.05A18.88,18.88,0,0,1,160.68,64c1.88,0,3,0,4,.51a7,7,0,0,1,3.23,4.18A92.74,92.74,0,0,1,171,79a93.65,93.65,0,0,1,2.25,13.78A12.34,12.34,0,0,1,172,97.41c-2.65,5.1-8.15,6.54-9.25,6.81l-1.8-7.86a8.76,8.76,0,0,0,4.06-3c2-2.83,1.35-6.17.35-11.34-1.05-5.39-1.64-8.46-4.19-9.61-2.86-1.29-6.28.69-7.22,1.27Z" transform="translate(-24.71 -32.27)"/>
  <path class="cls-1" d="M49.75,55.8,36.22,107.61a12.11,12.11,0,0,0-.26,5.85,12.7,12.7,0,0,0,5.18,7.67l33.79,8.57a15.18,15.18,0,0,0,4.63-2.2,14.85,14.85,0,0,0,3.2-3.09l16.2-58L56.76,53.2Z" transform="translate(-24.71 -32.27)"/>
  <line class="cls-2" x1="29.27" y1="31.81" x2="17.12" y2="77.64"/>
  <line class="cls-2" x1="38.91" y1="34.36" x2="26.76" y2="80.19"/>
  <line class="cls-2" x1="55.56" y1="38.78" x2="43.41" y2="84.61"/>
  <line class="cls-2" x1="66.18" y1="41.59" x2="54.03" y2="87.42"/>
  <path class="cls-3" d="M54,34.68c-3.48.77-6.26,3.87-7.52,7a12.61,12.61,0,0,0,0,9.25,13.44,13.44,0,0,0,5.67,6.72,4.36,4.36,0,0,1,1.16,0c3.32.4,3.76,4.12,7.06,5.44,1.19.47,2.83.31,6.13,0s3.74-.85,5.32-.58c2.77.47,2.78,2.29,5.67,3.7,4.31,2.1,6.77-.73,10.42,1.62.51.33,3,2,3.36,4.63.26,1.85-.76,2.44-.7,5.09a11.47,11.47,0,0,0,1.16,4.63,10.66,10.66,0,0,0,3.47,4.63c3.87,2.59,9,.21,9.49,0a12.57,12.57,0,0,0,4.63-5.09c.72-1.48,1.66-3.41,1.16-5.56-.72-3.06-3.74-3.94-3.36-5.9.2-1,1.07-1,2-2.2,1.9-2.47,1.39-6.84-.23-9.72-1.72-3-3.63-2.57-5.56-6.13-1.1-2-.56-2.34-1.73-5-1.07-2.39-2.5-5.58-5.31-7-3.29-1.62-5.18.84-9.19-.62-3-1.09-2.36-2.62-5.53-4.44C76.9,32.47,71.13,33.21,65.09,34c-1,.13-2.17.32-4.05.46C56.46,34.8,55.78,34.29,54,34.68Z" transform="translate(-24.71 -32.27)"/>
  <path class="cls-1" d="M47,66.05A18.71,18.71,0,0,0,38.24,64c-1.87,0-2.93,0-4,.51a7,7,0,0,0-3.21,4.18A92.82,92.82,0,0,0,27.94,79a96.13,96.13,0,0,0-2.23,13.78A12.34,12.34,0,0,0,27,97.41c2.63,5.1,8.09,6.54,9.19,6.81C36.8,101.6,37.4,99,38,96.36a8.7,8.7,0,0,1-4-3c-2-2.83-1.34-6.17-.35-11.34,1-5.39,1.63-8.46,4.17-9.61,2.84-1.29,6.24.69,7.17,1.27Z" transform="translate(-24.71 -32.27)"/>
</svg>
